<svg xmlns="http://www.w3.org/2000/svg" viewBox="0 0 5000 2916">
  <defs>

    <linearGradient id="lineGrad" x1="0%" y1="0%" x2="100%" y2="0%">
      <stop offset="0%" stop-color="#000000"/>  
      <stop offset="100%" stop-color="#FF7A3D"/> 
    </linearGradient>
  </defs>
  <g>
    <path d="M5000,1516.445C2973.786,2972.528,1215.929,1884.994,0,517.246v-31.1
             c1213.556,1369.695,2972.007,2464.192,5000,1002.031V1516.445z 
             M5000,1634.141C2982.063,3009.023,1209.184,1897.68,0,572.998v-30.656
             c1206.689,1326.292,2980.273,2444.57,5000,1063.778V1634.141z 
             M5000,1751.639C2989.991,3046.932,1200.999,1917.177,0,641.725v-30.015
             c1198.38,1276.697,2988.196,2413.283,5000,1112.249V1751.639z 
             M5000,1863.268C2997.392,3080.72,1191.166,1942.467,0,723.739v-28.962
             c1188.419,1219.595,2995.788,2364.448,5000,1141.515V1863.268z 
             M5000,1972.818C3004.144,3115.041,1179.379,1976.196,0,820.323v-28.375
             c1176.489,1156.381,3002.545,2301.669,5000,1154.154V1972.818z 
             M5000,2078.401C3010.077,3148.502,1165.328,2018.764,0,932.026v-27.821
             c1162.285,1087.03,3008.484,2223.317,5000,1148.128V2078.401z 
             M5000,2181.105C3014.88,3182.95,1148.636,2071.46,0,1059.273v-27.229
             c1145.438,1012.137,3013.31,2129.902,5000,1123.177V2181.105z 
             M5000,2280.63C3018.268,3218.78,1128.886,2135.145,0,1202.442v-26.598
             c1125.502,932.453,3016.703,2022.35,5000,1079.536V2280.63z 
             M5000,2377.924C3019.856,3257.703,1105.53,2211.066,0,1361.857v-25.987
             c1101.979,848.662,3018.331,1901.194,5000,1017.012V2377.924z 
             M5000,2472.209C3019.269,3299.636,1077.936,2299.904,0,1537.763v-25.405
             c1074.219,761.449,3017.798,1766.932,5000,935.406V2472.209z 
             M5000,2566.007C3016.02,3347.842,1045.286,2403.31,0,1730.318v-24.868
             c1041.402,672.088,3014.615,1621.905,5000,836.266V2566.007z 
             M2857.27,2916C1675.83,2797.078,637.84,2308.564,0,1939.624v-24.48
             C693.414,2317.064,1866.866,2864.217,3183.779,2916H2857.27z 
             M5000,2656.694c-370.58,138.468-741.466,220.96-1106.41,259.306h-299.498
             c460.337-19.647,933.515-105.942,1405.907-283.153V2656.694z 
             M2147.316,2916C1250.97,2744.304,486.839,2414.314,0,2165.474v-24.033
             C507.202,2401.258,1320.099,2751.53,2271.206,2916H2147.316z 
             M5000,2748.298c-196.424,70.075-393.16,125.178-589.252,167.702h-110.874
             c232.715-45.001,466.674-107.547,700.126-191.151V2748.298z 
             M1501.26,2916C872.705,2764.984,348.879,2562.348,0,2407.991v-23.554
             C365.067,2546.388,924.92,2762.726,1597.199,2916H1501.26z 
             M5000,2838.515c-80.994,27.84-162.047,54.102-243.159,77.485h-85.086
             c109.482-29.635,218.937-63.101,328.245-100.806V2838.515z 
             M4971.878,2916c9.375-3.093,18.751-6.09,28.122-9.234V2916H4971.878z 
             M773.556,2916C457.033,2829.197,193.794,2739.456,0,2667.148v-23.123
             c210.064,78.509,503.554,178.1,858.158,271.975H773.556z"
          stroke="url(#lineGrad)" stroke-width="11" fill="none"/>
  </g>
</svg>
