<svg xmlns="http://www.w3.org/2000/svg" id="_0201_basketball" viewBox="0 0 500 500" data-imageid="basketball-98" imageName="Basketball" class="illustrations_image" style="width: 144px;"><defs><style>.cls-1_basketball-98{fill:#fff;}.cls-2_basketball-98{fill:#f4a28c;}.cls-3_basketball-98{opacity:.46;}.cls-3_basketball-98,.cls-4_basketball-98,.cls-5_basketball-98,.cls-6_basketball-98{fill:none;}.cls-7_basketball-98{fill:#ce8172;}.cls-8_basketball-98{fill:#e6e6e6;}.cls-4_basketball-98{opacity:.08;}.cls-5_basketball-98{opacity:.31;}.cls-6_basketball-98{opacity:.3;}.cls-9_basketball-98{fill:#24285b;}.cls-10_basketball-98{fill:#000001;}.cls-11_basketball-98{fill:#ffd200;}.cls-12_basketball-98{fill:#68e1fd;}</style></defs><g id="bg_basketball-98" class="cls-6_basketball-98"><path class="cls-8_basketball-98" d="m117.69,144.6c-45.03,19.79-78.29,69.66-84.66,129.86-5.37,50.73,8.13,106.71,86.37,122.37,152.25,30.48,294.76,38.79,330.82-45.15,36.05-83.94,24.31-227.46-52.92-236.45-61.41-7.15-191.68-9.28-279.61,29.37Z"/></g><g id="basketball_player_basketball-98"><path class="cls-2_basketball-98" d="m239.44,179.78c-.05-3.7,97.99-62.26,139.65-136.82,0,0,15.01-18.51,25.33-9.63s-10.17,18.64-10.17,18.64c0,0-28.42,109.24-109.33,162.41,0,0-44.23,51.05-45.48-34.59Z"/><path class="cls-2_basketball-98" d="m235.81,121.49s5.69,10.38,7.04,18.35c.55,3.23-1.67,6.35-4.91,6.85-4.03.62-9.65.29-13.38-4.9l-7.41-8.03s-4.46-5.2-.29-12.28c4.17-7.08,15.8-6.49,18.95,0Z"/><polygon class="cls-2_basketball-98" points="222.27 130.89 219.8 169.59 241.22 169.43 234.42 141.33 222.27 130.89"/><path class="cls-2_basketball-98" d="m228.39,135.83s-1.92-4.13-4.91-2.43c-2.99,1.7-.26,7.69,4.25,6.38l.66-3.95Z"/><path class="cls-2_basketball-98" d="m239.06,128.21l4.86,2.84c1.2.7,1.26,2.41.11,3.2l-3.8,2.6-1.17-8.65Z"/><g class="cls-5_basketball-98"><path class="cls-7_basketball-98" d="m235.88,146.72s-3.92-.96-6.76-4.4c0,0,1.45,6.83,8.96,14.14l-2.2-9.74Z"/></g><circle class="cls-2_basketball-98" cx="223.29" cy="138.82" r="3.01"/><path class="cls-12_basketball-98 targetColor" d="m219.8,169.59l21.43-.16s84-1.37,68.21,79.56c-15.8,80.93-32.06,82.13-32.06,82.13l-86.03-18.94s10.12-3.1.92-52.31c-9.2-49.22-48.87-74.09,27.54-90.28Z" style="fill: rgb(243, 204, 0);"/><g class="cls-4_basketball-98"><path class="cls-10_basketball-98" d="m233.7,206.08s13.54,29.01,1.84,65.16c-11.69,36.15-14.17,47.55-14.17,47.55l-30.03-6.61s14.05-7.6-3.36-68.7l45.72-37.4Z"/></g><path class="cls-2_basketball-98" d="m183.59,181.24c-24.58,15.22-95.36,64.61-112.84,138.03l16.98,7.24s44.85-75.06,115.79-86.66c7.51-1.23,28.3-5.18,30.02-30.27,1.41-20.69-5.35-35.29-26.24-35.33-8.39-.02-16.57,2.58-23.71,7Z"/><path class="cls-12_basketball-98 targetColor" d="m70.75,319.26l16.98,7.24,19.38-26.06-24.6-13.88s-10.14,21.93-11.76,32.7Z" style="fill: rgb(243, 204, 0);"/><path class="cls-2_basketball-98" d="m70.75,319.26s-18.63,19.23-10.44,22.94c8.19,3.71,23.2-7.09,23.2-7.09,0,0,10.04,4.03,4.22-8.61l-16.98-7.24Z"/><circle class="cls-11_basketball-98" cx="414.46" cy="63.75" r="28.22"/><path class="cls-9_basketball-98" d="m191.34,312.18l-140.81,118.25,15.4,16.84s122.67-86.93,157.15-77.34c34.48,9.59,136.57,93.22,136.57,93.22l13.47-15.4s-67.36-69.67-95.75-116.63l-86.03-18.94Z"/><path class="cls-12_basketball-98 targetColor" d="m373.12,447.75s4.49-7.22,18.61-9.46c14.11-2.25-16.68,30.79-16.68,30.79l-12.79-8.91,10.87-12.42Z" style="fill: rgb(243, 204, 0);"/><path class="cls-12_basketball-98 targetColor" d="m52.55,432.46s-4.49-7.22-18.61-9.46,16.68,30.79,16.68,30.79l12.79-8.91-10.87-12.42Z" style="fill: rgb(243, 204, 0);"/><polygon class="cls-12_basketball-98 targetColor" points="290.57 350.92 259.57 389.8 295.53 414.45 317.97 386.06 290.57 350.92" style="fill: rgb(243, 204, 0);"/><g class="cls-3_basketball-98"><polygon class="cls-1_basketball-98" points="290.57 350.92 259.57 389.8 295.53 414.45 317.97 386.06 290.57 350.92"/></g><path class="cls-12_basketball-98 targetColor" d="m340.56,91.98l30.15,19.65s-11.24,27.9-26.95,44.83l-36.12-30.41s28.75-24.04,32.92-34.06Z" style="fill: rgb(243, 204, 0);"/><path class="cls-9_basketball-98" d="m220.59,137.49l-1.41-.95c-3.75-2.53-8.09-4.04-12.61-4.41-2.96-.25-5.97-1.6-5.55-6.22.8-8.82,8.82-2.73,7.7-11.55-1.12-8.82,2.41-11.71,8.34-9.3s11.09,2.41,11.32-2.57c.23-4.97,9.54-2.09,9.7,5.61.15,7.7-3.24,11.89-3.24,11.89l-14.57,8.22s8.17,7.39.31,9.28Z"/><path class="cls-12_basketball-98 targetColor" d="m211.44,132.99l23.41-13,2.36,4.23-15.36,13.27s-5.13.82-10.41-4.5Z" style="fill: rgb(243, 204, 0);"/></g></svg>