<svg xmlns="http://www.w3.org/2000/svg" id="_0379_fitness_1" viewBox="0 0 500 500" data-imageid="fitness-1-44" imageName="Fitness 1" class="illustrations_image" style="width: 144px;"><defs><style>.cls-1_fitness-1-44{fill:#f4a28c;}.cls-2_fitness-1-44{fill:#ce8172;}.cls-3_fitness-1-44{fill:#e6e6e6;}.cls-4_fitness-1-44{opacity:.08;}.cls-4_fitness-1-44,.cls-5_fitness-1-44,.cls-6_fitness-1-44{fill:none;}.cls-5_fitness-1-44{opacity:.31;}.cls-6_fitness-1-44{opacity:.3;}.cls-7_fitness-1-44{fill:#24285b;}.cls-8_fitness-1-44{fill:#000001;}.cls-9_fitness-1-44{fill:#ffd200;}.cls-10_fitness-1-44{fill:#68e1fd;}</style></defs><g id="bg_fitness-1-44" class="cls-6_fitness-1-44"><path class="cls-3_fitness-1-44" d="m157.97,72.03C89.46,91.14,35.3,151.49,19.43,229.11c-11.82,57.76-3.07,128.43,78.03,138.97,174.04,22.61,359.42,9.07,381.66-84.58,22.24-93.65-20.98-232-119.25-241.94-55.95-5.66-139.94,13.19-201.9,30.47Z"/></g><g id="person_fitness-1-44"><rect class="cls-3_fitness-1-44" x="109.14" y="190.8" width="42.63" height="7.92" transform="translate(-25.42 19.68) rotate(-7.87)"/><rect class="cls-3_fitness-1-44" x="103.27" y="182.11" width="10.33" height="30.27" rx="3.52" ry="3.52" transform="translate(-25.97 16.69) rotate(-7.87)"/><rect class="cls-3_fitness-1-44" x="151.45" y="175.45" width="10.33" height="30.27" rx="3.52" ry="3.52" transform="translate(-24.61 23.23) rotate(-7.87)"/><polygon class="cls-1_fitness-1-44" points="189.61 333.76 151.57 330.51 151.07 345.08 189.63 349.42 189.61 333.76"/><path class="cls-1_fitness-1-44" d="m313.06,201.44s32.31,7.58,63.03-16.75c0,0-.4-17.55,12.77-19.15,13.16-1.6,17.15,18.75,4.79,25.93-12.37,7.18-43.43,48.67-89.53,41.09-46.1-7.58-9.8-43.48,8.95-31.12Z"/><g class="cls-4_fitness-1-44"><path class="cls-8_fitness-1-44" d="m313.06,201.44s32.31,7.58,63.03-16.75c0,0-.4-17.55,12.77-19.15,13.16-1.6,17.15,18.75,4.79,25.93-12.37,7.18-43.43,48.67-89.53,41.09-46.1-7.58-9.8-43.48,8.95-31.12Z"/></g><polygon class="cls-1_fitness-1-44" points="277.2 73.63 265.66 114.3 286.49 123.82 285.61 88.72 277.2 73.63"/><g class="cls-5_fitness-1-44"><path class="cls-2_fitness-1-44" d="m285.83,94.92s-6.55-1.97-11.07-4.96c0,0,.02,12.01,11.33,17.83l-.26-12.87Z"/></g><path class="cls-1_fitness-1-44" d="m293.58,69.15s4.06,13.79,3.58,23.6c-.19,3.98-3.63,7.1-7.61,6.85-4.94-.31-11.53-2.16-14.6-9.29l-6.7-11.45s-3.95-7.32,2.84-14.64c6.79-7.32,20.43-3.59,22.48,4.93Z"/><path class="cls-1_fitness-1-44" d="m295.69,77.97l5.02,4.63c1.24,1.14.87,3.19-.7,3.83l-5.18,2.1.85-10.56Z"/><path class="cls-7_fitness-1-44" d="m291.09,62.59s9.27,12.76-10.05,21.65l-10.86,9.87s-9.83-9.67-10.96-21.01c-1.14-11.35,19.76-29.83,31.87-10.51Z"/><path class="cls-1_fitness-1-44" d="m281.05,84.24s-1.2-5.4-5.19-4.16c-3.99,1.24-2.3,9.06,3.38,8.67l1.81-4.51Z"/><path class="cls-10_fitness-1-44 targetColor" d="m337.4,199.72c-12.37,37.9-67.02,87.89-67.02,87.89l-42.55-18.83-33.24-14.69s.04-.07.09-.2c.04-.05.07-.14.11-.23.05-.12.12-.28.21-.46.87-1.86,3.02-6.6,5.71-13.34.04-.09.07-.18.11-.27.98-2.47,2.04-5.2,3.14-8.15.05-.11.07-.21.11-.3,6.97-18.86,15.46-46.76,16.84-73.59,1.1-21.24,9.88-32.62,19.13-38.7,11.07-7.29,22.82-7.01,22.82-7.01l29.78,13.63s57.14,36.36,44.77,74.25Z" style="fill: rgb(253, 131, 104);"/><g class="cls-4_fitness-1-44"><path class="cls-8_fitness-1-44" d="m227.82,268.79l-33.24-14.69s.04-.07.09-.2c.02-.07.05-.14.11-.23.05-.12.12-.28.21-.46.94-2.15,3.48-7.93,5.71-13.34.04-.09.07-.18.11-.27,1.28-3.11,2.45-6.07,3.14-8.15.05-.11.07-.21.11-.3,6.97-18.86,15.46-46.76,16.84-73.59,1.1-21.24,9.88-32.62,19.13-38.7l25.64-4.56s46.28,55.44-.75,75.58c-38.6,16.52-33.79,65.3-37.1,78.91Z"/></g><path class="cls-1_fitness-1-44" d="m298.94,359.68l.25,51.27h-17.09s-3.53-52.28-15.72-87.31l20.7-7.61s14.98,25.38,11.86,43.65Z"/><path class="cls-1_fitness-1-44" d="m232.03,160.57c32.15,20.26,64.62-22.96,36.5-48.53-.72-.66-1.47-1.3-2.24-1.93-18.56-15.08-39.58-36.25-82.24-28.49-42.66,7.76-59.64,37.77-59.64,89.88,0,0-14.04,36.63,7.45,34.34,17.49-1.86,4.99-26.03,4.99-26.03,0,0,23.94-45.59,41.62-60.06,10.65-8.71,28.96,25.31,53.55,40.81Z"/><path class="cls-7_fitness-1-44" d="m194.58,254.1s-14.59,27.46,10.28,44.69c24.87,17.24,47.99,4.59,69.24,66.91l25.59-4.5s0-57.82-29.31-73.6l-75.8-33.51Z"/><path class="cls-10_fitness-1-44 targetColor" d="m292.17,401.81s13.71-5.58,14.21,3.55l.15,2.71c.26,4.69,4.02,8.43,8.71,8.66,1.43.07,3.01,0,4.71-.26,6.09-.97,9.23,7.04,3.97,10.26-1.8,1.1-4.35,1.99-7.9,2.5-17.77,2.54-31.61,4.57-34.33-2.54s-7.8-22.33,10.48-24.87Z" style="fill: rgb(253, 131, 104);"/><path class="cls-10_fitness-1-44 targetColor" d="m156.34,339.3s-1.05,14.76-9.47,11.18l-2.49-1.06c-4.32-1.84-9.34-.12-11.62,3.99-.69,1.25-1.34,2.69-1.85,4.34-1.82,5.89-10.4,5.17-10.95-.97-.19-2.11.14-4.78,1.25-8.19,5.57-17.06,9.87-30.38,17.45-29.68,7.58.7,23.48,2.88,17.68,20.39Z" style="fill: rgb(253, 131, 104);"/><path class="cls-7_fitness-1-44" d="m240.65,286.86s-3.94,65.77-33.38,65.77c-12.69,0-20.52-1.64-20.52-1.64l-1.15-22.28s23.6-.18,14.38-50.73l40.67,8.87Z"/><polygon class="cls-9_fitness-1-44" points="388.47 196.54 375.42 184.02 363.74 191.75 377.54 206.62 388.47 196.54"/><path class="cls-7_fitness-1-44" d="m279.11,48.04c-1.78-6.53-6.97-11.97-13.32-14.33-6.35-2.36-13.69-1.69-19.65,1.51-1.69.91-3.29,2.02-4.54,3.48-1.14,1.32-1.95,2.89-2.56,4.52-3.1,8.38-.01,18.68,7.26,23.88,12.95,9.25,37.62-1.45,32.81-19.06Z"/><path class="cls-9_fitness-1-44" d="m136.86,179.82c-1.34-.38-14.27-2.71-14.27-2.71l1.97-13.48,19.09,3.97-6.79,12.22Z"/><rect class="cls-9_fitness-1-44" x="65.06" y="429.8" width="347.75" height="5.32"/><path class="cls-7_fitness-1-44" d="m381.62,232.61h13.7c9.85,0,18.13,7.38,19.27,17.16l21.53,185.71h-30.98l-23.52-202.87Z"/><path class="cls-7_fitness-1-44" d="m52.39,435.12h389.96c9.55,0,17.3,7.75,17.3,17.3v10.37c0,2.71-2.2,4.91-4.91,4.91H39.99c-2.71,0-4.91-2.2-4.91-4.91v-10.37c0-9.55,7.75-17.3,17.3-17.3Z"/><rect class="cls-9_fitness-1-44" x="338.53" y="249.49" width="65.95" height="11.43" rx="3.9" ry="3.9"/><rect class="cls-3_fitness-1-44" x="366.3" y="171.1" width="42.63" height="7.92" transform="translate(178.38 -195.23) rotate(36.23)"/><rect class="cls-3_fitness-1-44" x="364.91" y="146.38" width="10.33" height="30.27" rx="3.52" ry="3.52" transform="translate(166.99 -187.48) rotate(36.23)"/><rect class="cls-3_fitness-1-44" x="404.14" y="175.13" width="10.33" height="30.27" rx="3.52" ry="3.52" transform="translate(191.56 -205.11) rotate(36.23)"/><path class="cls-1_fitness-1-44" d="m388.63,171.69c1.01.05,2.08.17,2.86.81.78.63,1.08,1.96.33,2.64-.33.31-.8.42-1.24.53-2.33.55-4.66,1.1-6.99,1.66,1.49,1.16,2.7,2.76,3.13,4.6.43,1.84,0,3.92-1.33,5.27s-3.58,1.78-5.2.81c-1.29-.77-2.01-2.24-2.32-3.7-.54-2.51-.04-6.42,1.15-8.76,1.78-3.48,6.14-4.03,9.61-3.85Z"/><g class="cls-4_fitness-1-44"><path class="cls-8_fitness-1-44" d="m388.63,171.69c1.01.05,2.08.17,2.86.81.78.63,1.08,1.96.33,2.64-.33.31-.8.42-1.24.53-2.33.55-4.66,1.1-6.99,1.66,1.49,1.16,2.7,2.76,3.13,4.6.43,1.84,0,3.92-1.33,5.27s-3.58,1.78-5.2.81c-1.29-.77-2.01-2.24-2.32-3.7-.54-2.51-.04-6.42,1.15-8.76,1.78-3.48,6.14-4.03,9.61-3.85Z"/></g></g></svg>