<svg xmlns="http://www.w3.org/2000/svg" id="_0202_soccer" viewBox="0 0 500 500" data-imageid="soccer-60" imageName="Soccer" class="illustrations_image" style="width: 144px;"><defs><style>.cls-1_soccer-60{fill:#fff;}.cls-2_soccer-60{fill:#f4a28c;}.cls-3_soccer-60{opacity:.46;}.cls-3_soccer-60,.cls-4_soccer-60,.cls-5_soccer-60,.cls-6_soccer-60,.cls-7_soccer-60{fill:none;}.cls-8_soccer-60{fill:#ce8172;}.cls-9_soccer-60{fill:#e6e6e6;}.cls-4_soccer-60{opacity:.03;}.cls-5_soccer-60{opacity:.08;}.cls-6_soccer-60{opacity:.31;}.cls-7_soccer-60{opacity:.3;}.cls-10_soccer-60{fill:#24285b;}.cls-11_soccer-60{fill:#000001;}.cls-12_soccer-60{fill:#ffd200;}.cls-13_soccer-60{fill:#68e1fd;}</style></defs><g id="bg_soccer-60"><g class="cls-7_soccer-60"><path class="cls-9_soccer-60" d="m146.09,82.31c-39.26,19.67-68.26,69.27-73.78,129.16-4.66,50.47,7.14,106.17,75.39,121.8,132.81,30.4,257.12,38.73,288.53-44.77,31.41-83.5,33.31-195.41-78.39-235.66-50.84-18.32-135.07-8.94-211.75,29.47Z"/></g><g class="cls-4_soccer-60"><ellipse class="cls-11_soccer-60" cx="258.28" cy="436.46" rx="196.67" ry="19.74"/></g></g><g id="ball_soccer-60"><circle class="cls-12_soccer-60" cx="44.13" cy="211.91" r="28.32"/></g><g id="soccer_player_soccer-60"><path class="cls-2_soccer-60" d="m216.28,82.22s.32,11.88,3.2,19.47c1.17,3.08,4.66,4.65,7.73,3.44,3.8-1.5,8.51-4.64,9.11-11.02l2.35-10.71s1.24-6.76-5.96-10.79c-7.2-4.02-16.97,2.39-16.41,9.61Z"/><polygon class="cls-2_soccer-60" points="232.77 83.5 254.52 115.78 235.88 126.5 227.54 98.71 232.77 83.5"/><path class="cls-2_soccer-60" d="m229.98,90.89s-.43-4.55,3.02-4.59c3.45-.04,4.12,6.53-.45,7.68l-2.57-3.08Z"/><path class="cls-2_soccer-60" d="m216.87,89.69l-2.77,4.92c-.68,1.22.13,2.73,1.52,2.83l4.61.33-3.36-8.08Z"/><g class="cls-6_soccer-60"><path class="cls-8_soccer-60" d="m229,104.12s2.91-2.82,3.62-7.24c0,0,2.2,6.65-.6,16.79l-3.02-9.55Z"/></g><circle class="cls-2_soccer-60" cx="235.91" cy="90.89" r="3.02"/><path class="cls-10_soccer-60" d="m218.57,83.85c3.9,1.94,4.85,1.49,10.44.6,0,0,2.22,28.61,19.82,19.39,10.84-5.68-.86-12.96-6.28-26.05-5.42-13.09-8.58-17.22-17.22-14.77-3.29.93-6.37,3.2-8.92,5.65-4.66,4.48-3.63,12.31,2.17,15.19Z"/><path class="cls-2_soccer-60" d="m267.46,262.88l-6.68,22.63c-9.96,33.72,11.54,68.62,46.14,74.89l53.82,9.75v-15.2l-40.29-16.51c-13.49-5.53-19.85-21.02-14.13-34.43l8.8-20.64-47.65-20.49Z"/><path class="cls-2_soccer-60" d="m344.27,110.19l70.09,33.56c6.68,3.2,12.36,8.15,16.44,14.33l31.85,48.24-11.2,11.17-57.24-42.33-74.4-20.08,24.47-44.89Z"/><path class="cls-13_soccer-60 targetColor" d="m235.88,126.5l18.65-10.72s36.66-35.15,89.75-5.59c53.09,29.56-24.47,148.83-24.47,148.83l-77.82-11.67s18.23-37.98-31.99-63.86l-19.72-19.05s26.96-27.22,45.6-37.94Z" style="fill: rgb(252, 0, 0);"/><g class="cls-5_soccer-60"><path class="cls-11_soccer-60" d="m337.24,175.96s11.83,13.08-9.42,19.82-45.95,32.58-53.88,56.36l-31.96-4.79s5.57-10.29,2.01-26.59c-3.57-16.3,55.83-48.65,93.25-44.79Z"/></g><path class="cls-2_soccer-60" d="m190.28,164.44s-26.64,22.15-16.01,46.78c10.62,24.63,60.7,18.83,102.3-4.83,41.6-23.66,48.36-27.7,48.36-27.7l-7.73-14.25-85.97,26.26-40.95-26.26Z"/><path class="cls-10_soccer-60" d="m317.2,164.44s23.18-3.93,27.87,4.76c8.64,15.99-17.25,14.83-20.15,9.49s-7.73-14.25-7.73-14.25Z"/><polygon class="cls-13_soccer-60 targetColor" points="337.24 106.6 395.47 134.71 385.86 172.91 354.48 164.44 337.24 106.6" style="fill: rgb(252, 0, 0);"/><polygon class="cls-10_soccer-60" points="377.18 125.88 369.47 168.49 382.39 171.78 390.91 132.5 377.18 125.88"/><path class="cls-2_soccer-60" d="m321.88,256.66l-80.61-14.06c-23.71-4.13-48.03-2.93-71.22,3.51l-70.6,19.63v18.91l91.58-7.03c9.78-.75,19.61-.41,29.32,1.02l64.61,9.52c17.55,2.59,33.84-9.61,36.31-27.17l.61-4.34Z"/><path class="cls-10_soccer-60" d="m222.55,235.84l-2.32,45.87s84.79,20.36,99.57,11.15c14.78-9.21,2.08-36.2,2.08-36.2l-99.33-20.82Z"/><path class="cls-13_soccer-60 targetColor" d="m99.46,265.74s-27.57-12.03-38.19-6.72,26.08,22.21,26.08,22.21c0,0,1.53,14.09,12.11,3.42v-18.91Z" style="fill: rgb(252, 0, 0);"/><path class="cls-13_soccer-60 targetColor" d="m356.44,369.21s19.04,15.43,28.53,13.57-15.66-23.1-15.66-23.1c0,0,1.85-11.39-8.77-5.32l-4.11,14.85Z" style="fill: rgb(252, 0, 0);"/><polygon class="cls-13_soccer-60 targetColor" points="99.46 265.74 170.06 246.12 171.76 279.11 99.46 284.66 99.46 265.74" style="fill: rgb(252, 0, 0);"/><g class="cls-3_soccer-60"><polygon class="cls-1_soccer-60" points="99.46 265.74 170.06 246.12 171.76 279.11 99.46 284.66 99.46 265.74"/></g><path class="cls-13_soccer-60 targetColor" d="m216.28,82.22l.25,4.07s2.51,3.31,12.78.62l-.3-2.45s-7.53.84-12.72-2.24Z" style="fill: rgb(252, 0, 0);"/><path class="cls-10_soccer-60" d="m254.52,284.66s-4.53,41.5,16.04,53.57l35.81-13.59s-4.32-9.84,3.74-29.52c8.06-19.68-55.58-10.46-55.58-10.46Z"/><polygon class="cls-13_soccer-60 targetColor" points="360.54 354.36 320.44 338.45 310.81 361.11 356.44 369.21 360.54 354.36" style="fill: rgb(252, 0, 0);"/><g class="cls-3_soccer-60"><polygon class="cls-1_soccer-60" points="360.54 354.36 320.44 338.45 310.81 361.11 356.44 369.21 360.54 354.36"/></g><g class="cls-5_soccer-60"><path class="cls-11_soccer-60" d="m231.22,190.7l-17.37,3.62s-7.05-18.95,6.38-29.87c13.42-10.93,34.78-.21,43.66,16.28l-32.67,9.98Z"/></g><g class="cls-3_soccer-60"><circle class="cls-1_soccer-60" cx="300.48" cy="143.07" r="10.33"/></g><path class="cls-10_soccer-60" d="m451.44,217.49s11.11,14.49,28.01,7.24c16.9-7.24-16.8-18.41-16.8-18.41l-11.2,11.17Z"/></g></svg>