<svg xmlns="http://www.w3.org/2000/svg" id="_0333_bicycle" viewBox="0 0 500 500" data-imageid="bicycle-17" imageName="Bicycle" class="illustrations_image" style="width: 144px;"><defs><style>.cls-1_bicycle-17{fill:#fff;}.cls-2_bicycle-17{fill:#f4a28c;}.cls-3_bicycle-17{fill:#ce8172;}.cls-4_bicycle-17{opacity:.44;}.cls-4_bicycle-17,.cls-5_bicycle-17,.cls-6_bicycle-17,.cls-7_bicycle-17{fill:none;}.cls-8_bicycle-17{fill:#e6e6e6;}.cls-5_bicycle-17{opacity:.08;}.cls-6_bicycle-17{opacity:.31;}.cls-7_bicycle-17{opacity:.3;}.cls-9_bicycle-17{fill:#24285b;}.cls-10_bicycle-17{fill:#000001;}.cls-11_bicycle-17{fill:#ffd200;}.cls-12_bicycle-17{fill:#68e1fd;}</style></defs><g id="sd_bicycle-17" class="cls-7_bicycle-17"><ellipse class="cls-8_bicycle-17" cx="250" cy="466.94" rx="221.87" ry="18.97"/></g><g id="bike_bicycle-17"><path class="cls-9_bicycle-17" d="m276.69,232.83s47.02,26.96,30.16,58.23c-16.86,31.27-44.26,39.18-44.26,39.18l-20.77-97.4h34.86Z"/><g class="cls-5_bicycle-17"><path class="cls-10_bicycle-17" d="m276.69,232.83s47.02,26.96,30.16,58.23c-16.86,31.27-44.26,39.18-44.26,39.18l-20.77-97.4h34.86Z"/></g><path class="cls-2_bicycle-17" d="m249.07,198.68s31.51,9.74,47.83,15.81c16.32,6.07,23.2,22.63,8.86,23.89s-13.05-8.44-13.05-8.44l-38.03-4.71-18.96-6.64,13.35-19.91Z"/><g class="cls-5_bicycle-17"><path class="cls-10_bicycle-17" d="m249.07,198.68s31.51,9.74,47.83,15.81c16.32,6.07,23.2,22.63,8.86,23.89s-13.05-8.44-13.05-8.44l-38.03-4.71-18.96-6.64,13.35-19.91Z"/></g><path class="cls-9_bicycle-17" d="m139.27,465.4c-42.05,0-76.26-34.21-76.26-76.26s34.21-76.26,76.26-76.26,76.26,34.21,76.26,76.26-34.21,76.26-76.26,76.26Zm0-144.08c-37.39,0-67.81,30.42-67.81,67.81s30.42,67.81,67.81,67.81,67.81-30.42,67.81-67.81-30.42-67.81-67.81-67.81Z"/><path class="cls-12_bicycle-17 targetColor" d="m225.33,392.31c-1.75,0-3.17-1.42-3.17-3.17,0-45.71-37.19-82.9-82.9-82.9s-82.9,37.19-82.9,82.9c0,1.75-1.42,3.17-3.17,3.17s-3.17-1.42-3.17-3.17c0-49.2,40.03-89.24,89.23-89.24s89.23,40.03,89.23,89.24c0,1.75-1.42,3.17-3.17,3.17Z" style="fill: rgb(252, 0, 0);"/><path class="cls-12_bicycle-17 targetColor" d="m455.03,392.31c-1.75,0-3.17-1.42-3.17-3.17,0-45.71-37.19-82.9-82.9-82.9s-82.9,37.19-82.9,82.9c0,1.75-1.42,3.17-3.17,3.17s-3.17-1.42-3.17-3.17c0-49.2,40.03-89.24,89.24-89.24s89.23,40.03,89.23,89.24c0,1.75-1.42,3.17-3.17,3.17Z" style="fill: rgb(252, 0, 0);"/><path class="cls-12_bicycle-17 targetColor" d="m149.36,376.88l83.55,1.29c12.5.19,22.49,11.21,20.64,23.57-.09.57-.19,1.14-.32,1.73-.38,1.78-.91,3.39-1.54,4.83-3.95,9.02-14.03,13.68-23.64,11.54l-81.6-18.12c-6.86-1.52-11.14-8.36-9.51-15.19h0c1.37-5.73,6.53-9.75,12.43-9.66Z" style="fill: rgb(252, 0, 0);"/><g class="cls-4_bicycle-17"><path class="cls-1_bicycle-17" d="m149.36,376.88l83.55,1.29c12.5.19,22.49,11.21,20.64,23.57-.09.57-.19,1.14-.32,1.73-.38,1.78-.91,3.39-1.54,4.83-3.95,9.02-14.03,13.68-23.64,11.54l-81.6-18.12c-6.86-1.52-11.14-8.36-9.51-15.19h0c1.37-5.73,6.53-9.75,12.43-9.66Z"/></g><path class="cls-9_bicycle-17" d="m368.97,465.4c-42.05,0-76.26-34.21-76.26-76.26s34.21-76.26,76.26-76.26,76.26,34.21,76.26,76.26-34.21,76.26-76.26,76.26Zm0-144.08c-37.39,0-67.81,30.42-67.81,67.81s30.42,67.81,67.81,67.81,67.81-30.42,67.81-67.81-30.42-67.81-67.81-67.81Z"/><circle class="cls-9_bicycle-17" cx="139.27" cy="389.14" r="19.84"/><circle class="cls-9_bicycle-17" cx="366.68" cy="389.14" r="19.84"/><path class="cls-12_bicycle-17 targetColor" d="m220.35,354.88c-1.3,0-2.52-.81-2.98-2.11-.59-1.65.27-3.46,1.92-4.05.64-.23,64.15-23.28,99.4-70.74,1.04-1.4,3.03-1.69,4.43-.65,1.4,1.04,1.7,3.03.65,4.43-36.42,49.04-99.68,71.98-102.36,72.93-.35.12-.71.18-1.06.18Z" style="fill: rgb(252, 0, 0);"/><path class="cls-12_bicycle-17 targetColor" d="m366.68,392.31c-.7,0-1.41-.23-2-.71-26.66-21.72-53.16-139.39-54.28-144.39-.2-.88,0-1.8.52-2.54s1.34-1.21,2.24-1.3c5.25-.57,20.44-3.85,21.37-11.26.02-.19.05-.36-.3-.72-4.2-4.33-26.63-4.36-41.23-2.99-1.72.16-3.28-1.12-3.45-2.86-.16-1.74,1.12-3.29,2.86-3.45,6.37-.6,38.55-3.17,46.36,4.89,1.61,1.66,2.31,3.7,2.04,5.91-1.38,11.02-16.32,14.99-23.46,16.26,4.57,19.55,28.73,119.12,51.33,137.54,1.36,1.11,1.56,3.1.46,4.46-.63.77-1.54,1.17-2.46,1.17Z" style="fill: rgb(252, 0, 0);"/><polygon class="cls-11_bicycle-17" points="327.2 257.79 378.73 245.93 383.36 293.02 338.71 301.36 327.2 257.79"/><path class="cls-12_bicycle-17 targetColor" d="m243.4,401.79c-.2,0-.41-.02-.61-.06-1.1-.22-2-1-2.37-2.05l-38.84-109.59-58.76,99.21c-.89,1.51-2.84,2-4.34,1.11-1.51-.89-2-2.83-1.11-4.34l62.21-105.04c.63-1.06,1.79-1.65,3.03-1.54,1.22.12,2.27.94,2.68,2.1l39.32,110.94,80.37-87.86c1.17-1.3,3.16-1.42,4.47-.25,1.3,1.17,1.41,3.17.25,4.47l-83.94,91.84c-.61.68-1.47,1.05-2.36,1.05Z" style="fill: rgb(252, 0, 0);"/><rect class="cls-9_bicycle-17" x="285.13" y="219.11" width="30.3" height="12.25" rx="4.12" ry="4.12"/><path class="cls-12_bicycle-17 targetColor" d="m202.49,287.99c-2.3,0-4.18-1.84-4.22-4.15l-.36-21.97c-.04-2.33,1.82-4.25,4.15-4.29.02,0,.05,0,.07,0,2.3,0,4.18,1.84,4.22,4.15l.36,21.97c.04,2.33-1.82,4.25-4.15,4.29-.02,0-.05,0-.07,0Z" style="fill: rgb(252, 0, 0);"/><path class="cls-11_bicycle-17" d="m187.3,260.08c-5.56,2.45-5.61,10.26-.05,12.68,2.3,1,5.4,1.82,9.57,2.25,13.35,1.4,29.34-1.47,37.3-3.2,2.83-.61,4.68-3.34,4.23-6.2h0c-.31-1.97-1.67-3.61-3.55-4.29-7.86-2.84-29.41-9.2-47.5-1.24Z"/><path class="cls-2_bicycle-17" d="m267.2,30.98s1.32,11.1-.33,18.56c-.67,3.03-3.71,4.97-6.72,4.26-3.75-.88-8.55-3.16-9.98-9.02l-3.64-9.65s-2.07-6.13,4.08-10.85c6.16-4.73,16.13-.09,16.59,6.71Z"/><polygon class="cls-2_bicycle-17" points="251.21 36.39 237 70.14 256.02 78.13 258.74 50.15 251.21 36.39"/><path class="cls-2_bicycle-17" d="m267.67,38.01l3.25,4.21c.8,1.04.25,2.56-1.03,2.84l-4.25.94,2.03-7.98Z"/><g class="cls-6_bicycle-17"><path class="cls-3_bicycle-17" d="m258.53,52.52s-2.63-1.04-4.74-3.65c0,0-5.79,11.72,3.59,15.18l1.15-11.53Z"/></g><path class="cls-2_bicycle-17" d="m254.67,39.3s-.22-4.3-3.44-3.87c-3.22.43-2.94,6.64,1.47,7.09l1.97-3.22Z"/><path class="cls-9_bicycle-17" d="m187.79,213.15s-20.53,36.02,7.38,44.36c27.91,8.34,56.14,29.67,41.83,59.59-14.31,29.92-18.94,46.9-18.94,46.9l53.23,9.19s31.57-105.1,3.53-122.8c-28.04-17.7-37.82-25.14-37.82-25.14l-49.21-12.09Z"/><path class="cls-2_bicycle-17" d="m255.07,38.13s-1.03-4.88-4.89-3.69c-3.86,1.19-3.17,6.97,2.03,8.71l2.86-5.02Z"/><path class="cls-12_bicycle-17 targetColor" d="m233.35,68.86l8.64,2.87c10.05,3.34,19.13,9.09,26.41,16.79,15.11,15.98,36.69,44.83,25.29,70.01-16.82,37.16-56.61,63.89-56.61,63.89l-71.83-23.76s-20.43-158.83,68.09-129.79Z" style="fill: rgb(252, 0, 0);"/><g class="cls-5_bicycle-17"><path class="cls-10_bicycle-17" d="m254.04,102.78s22.88,26.74-6.17,58.81c-29.04,32.07-20.42,51.57-20.42,51.57l-34.15-32.8,60.73-77.58Z"/></g><path class="cls-2_bicycle-17" d="m245.87,89.41c-13.76-11.45-34.36-9.27-46.09,4.25-27.03,31.13-75.17,96.84-25.04,121.91,66.72,33.36,115.55,20.31,115.55,20.31,0,0,9.75,9.95,15.47,2.52,5.72-7.44-12.37-18.63-22.86-19.28s-72.86-16.6-75.77-35.94c-2.45-16.32,71.73-66.34,38.74-93.77Z"/><path class="cls-9_bicycle-17" d="m254.67,39.3s2.61,25.67-9.97,35.74c-12.58,10.06-24.08-6.54-40.61,6.98-16.53,13.51-28.89,17.04-40.86,0-11.97-17.04,6-40.21,32.96-38.87,23.98,1.19,43.98,1.89,43.42-10.87-.43-9.92,7.02-18.69,16.94-18.17,2.68.14,5.7.85,9.1,2.35,20.4,8.99-10.96,22.85-10.96,22.85Z"/><polygon class="cls-2_bicycle-17" points="243.95 368.46 238.41 392.77 253.2 395.29 262.6 371.68 243.95 368.46"/><path class="cls-12_bicycle-17 targetColor" d="m238.41,392.77l-3.88,12.22,31.38,1.44s-1.08-14.38-27.5-13.66Z" style="fill: rgb(252, 0, 0);"/><rect class="cls-9_bicycle-17" x="226.55" y="404.54" width="33.7" height="12.4" rx="4.17" ry="4.17"/></g></svg>