<svg xmlns="http://www.w3.org/2000/svg" id="_0378_fitness" viewBox="0 0 500 500" data-imageid="fitness-99" imageName="Fitness" class="illustrations_image" style="width: 144px;"><defs><style>.cls-1_fitness-99{fill:#fff;}.cls-2_fitness-99{fill:#f4a28c;}.cls-3_fitness-99{opacity:.54;}.cls-3_fitness-99,.cls-4_fitness-99,.cls-5_fitness-99{fill:none;}.cls-6_fitness-99{fill:#e6e6e6;}.cls-4_fitness-99{opacity:.09;}.cls-5_fitness-99{opacity:.3;}.cls-7_fitness-99{fill:#24285b;}.cls-8_fitness-99{fill:#000001;}.cls-9_fitness-99{fill:#ffd200;}.cls-10_fitness-99{fill:#68e1fd;}</style></defs><g id="bg_fitness-99"><g class="cls-5_fitness-99"><path class="cls-6_fitness-99" d="m480.31,367.41c-9.59,22.01-21.61,43.52-68.07,58.62-3.46,1.13-7.12,2.23-10.96,3.27-18.06,4.91-40.59,9-68.97,12.01-3.11.33-6.28.64-9.53.96-5.43.5-11.07.97-16.91,1.41-30.03,2.21-65.61,3.39-107.84,3.34h-2.64c-18.95-.03-36.09-1.25-51.57-3.45-2.73-.38-5.39-.78-8.02-1.24-3.58-.61-7.08-1.27-10.47-1.98-6.82-1.43-13.28-3.08-19.38-4.91l-7.43-2.38c-6.63-2.26-12.79-4.75-18.55-7.45-1.22-.56-2.4-1.13-3.57-1.71-2.17-1.1-4.3-2.21-6.35-3.36-11.17-6.19-20.57-13.21-28.45-20.77-45.19-43.29-35.25-112.29,8.87-145.82,1.5-1.15,3.03-2.24,4.61-3.29,8.21-5.5,17.47-9.81,27.65-12.61,1.51-.42,3.04-.8,4.61-1.17,3.01-.66,6.09-1.22,9.24-1.62,2.04-.26,4.09-.52,6.16-.77,11.29-1.34,22.93-2.4,34.8-3.22,30.61-2.12,62.69-2.61,94.03-2.07,1.46.02,2.94.05,4.42.09.56,0,1.11.02,1.67.03,7.34.16,14.63.37,21.85.64h.43s.03.02.05.02h.33c1.91.07,3.83.16,5.74.23,35.56,1.46,68.94,4.04,96.57,6.84,13.43,1.36,25.51,2.77,35.81,4.12,4.47.59,8.63,1.17,12.41,1.72,2.87.43,5.64.94,8.32,1.51,1.32.3,2.63.61,3.91.96.66.16,1.32.33,1.98.52.71.19,1.43.4,2.12.61.78.23,1.55.47,2.31.71,1.41.45,2.8.94,4.14,1.46,56.01,20.95,62.59,82.23,46.68,118.73Z"/></g><path class="cls-6_fitness-99" d="m55.08,310.08v-59.42c-1.58,1.04-3.11,2.14-4.61,3.29v56.13c-7.81,1.11-13.81,7.83-13.81,15.96,0,8.91,7.22,16.13,16.13,16.13s16.13-7.22,16.13-16.13c0-8.13-6-14.86-13.83-15.96Zm-2.3,28.48c-6.91,0-12.53-5.6-12.53-12.53s5.62-12.53,12.53-12.53,12.53,5.62,12.53,12.53-5.6,12.53-12.53,12.53Z"/><path class="cls-6_fitness-99" d="m87.34,277.4v-40.52c-1.57.37-3.1.75-4.61,1.17v39.36c-7.81,1.11-13.81,7.83-13.81,15.96,0,8.91,7.22,16.13,16.13,16.13s16.13-7.22,16.13-16.13c0-8.13-6-14.86-13.83-15.96Zm-2.3,28.48c-6.91,0-12.53-5.6-12.53-12.53s5.62-12.53,12.53-12.53,12.53,5.62,12.53,12.53-5.6,12.53-12.53,12.53Z"/><g class="cls-5_fitness-99"><circle class="cls-8_fitness-99" cx="103.19" cy="374.42" r="23.92"/></g><g class="cls-5_fitness-99"><circle class="cls-8_fitness-99" cx="103.19" cy="374.42" r="5.01"/></g><g class="cls-5_fitness-99"><path class="cls-8_fitness-99" d="m127.11,431.24c0,3.22-.64,6.3-1.79,9.1-6.82-1.43-13.28-3.08-19.38-4.91l-7.43-2.38c-6.63-2.26-12.79-4.75-18.55-7.45,2.52-10.49,11.97-18.27,23.23-18.27,13.22,0,23.92,10.7,23.92,23.91Z"/></g><g class="cls-5_fitness-99"><path class="cls-8_fitness-99" d="m108.2,431.24c0,1.76-.9,3.29-2.26,4.19l-7.43-2.38c-.21-.56-.33-1.17-.33-1.81,0-2.77,2.24-5.01,5.01-5.01s5.01,2.24,5.01,5.01Z"/></g><path class="cls-6_fitness-99" d="m105.28,345.1l-1.98,5.41-.57,1.58-14.91,40.64-2.05,5.6-2.51,6.86-6.86,18.7c-2.17-1.1-4.3-2.21-6.35-3.36l12.49-34.07,12.68-34.61,2.49-6.77h7.57Z"/><path class="cls-6_fitness-99" d="m143.81,443.56c-2.73-.38-5.39-.78-8.02-1.24l-13.62-37.13-2.51-6.86-1.84-5.01-15.1-41.24-.57-1.55-2-5.45h7.57l2.35,6.42,13.17,35.93,20.58,56.11Z"/><rect class="cls-6_fitness-99" x="79.71" y="398.34" width="46.96" height="6.86"/><path class="cls-6_fitness-99" d="m440,284.45h-2.42l-8.09-37.23c-.77-.24-1.53-.49-2.31-.71-.7-.21-1.41-.42-2.12-.61l8.39,38.56h-18.88l8.51-39.08c-1.29-.35-2.59-.66-3.91-.96l-8.72,40.04h-2.42c-5.69,0-10.3,4.61-10.3,10.3v100.15c0,5.69,4.61,10.3,10.3,10.3h31.98c5.69,0,10.3-4.61,10.3-10.3v-100.15c0-5.69-4.61-10.3-10.3-10.3Z"/></g><g id="person_fitness-99"><path class="cls-2_fitness-99" d="m346.22,262.09s48.78-18,51.94-76.31c2.63-48.66-8.28-84.32-8.28-84.32l-22.09,5.31s1.43,70.04-13.12,89.26c-14.55,19.22-65.2,4.31-76.01,31.07-10.81,26.76-1.71,58.26,67.56,34.99Z"/><path class="cls-2_fitness-99" d="m367.79,106.77s-4.83-8.07-4.31-12.99,4.31-4.92,4.31-4.92c0,0-1.73-6.99,1.12-10.1s18.12-2.33,19.16,0,4.4,10.7,1.81,22.69-22.09,5.31-22.09,5.31Z"/><path class="cls-2_fitness-99" d="m244.01,182s-3.06,22.31-8.53,27.45h29.04s-9.41-9.34-8.54-28.94l-11.97,1.49Z"/><g class="cls-4_fitness-99"><path class="cls-8_fitness-99" d="m244.01,182s-3.06,22.31-8.53,27.45h29.04s-9.41-9.34-8.54-28.94l-11.97,1.49Z"/></g><path class="cls-2_fitness-99" d="m235.96,163.9s-1.02,26.8,13.01,28.48c14.03,1.68,10.67-28.86,10.67-28.86,0,0,.77-15.04-7.48-16.52-8.25-1.48-19.1-2.26-16.2,16.9Z"/><path class="cls-2_fitness-99" d="m236.15,170.09s-7.3-1.78-6.7,1.91c.6,3.69-.31,8.71,7.88,6.01l-1.17-7.92Z"/><path class="cls-2_fitness-99" d="m259.56,168.22s7.1-2.45,6.85,1.28c-.25,3.73,1.12,8.64-7.28,6.72l.43-8Z"/><path class="cls-2_fitness-99" d="m155.06,262.09s-48.78-18-51.94-76.31c-2.63-48.66,8.28-84.32,8.28-84.32l22.09,5.31s-1.43,70.04,13.12,89.26c14.55,19.22,65.2,4.31,76.01,31.07,10.81,26.76,1.71,58.26-67.56,34.99Z"/><path class="cls-10_fitness-99 targetColor" d="m310.03,363.08l-116.65.92-19.71-40.76c-7.78-16.07-12.45-33.56-12.91-51.41-.04-1.36-.06-2.74-.06-4.1.11-24.8,6.88-55.99,40.1-57.02,4.8-.15,9.73-.33,14.69-.51,22.65-.88,46.54-1.93,67.06-.11,26.86,2.37,47.97,9.62,53.07,28.43,9.84,36.37-25.59,124.57-25.59,124.57Z" style="fill: rgb(252, 166, 0);"/><path class="cls-7_fitness-99" d="m236.15,170.09s2.93-4.13,5.16-13.87c3.94.92,8.25,1.09,12.24.51,2.68-.39,6.39-1.07,8.02-3.39,1.9-2.71,3.02-6.65,2.62-9.93-.43-3.51-2.76-6.87-6.12-7.97-.04,2.04-.94,4.05-2.43,5.44-.41-3.95-3.5-7.47-7.36-8.39.39,2.67-.51,5.5-2.37,7.45-.11-2.71-1.48-5.34-3.63-7,.09,2.47-.72,4.97-2.25,6.92-1.97,2.5-4.98,4.01-6.99,6.48-5.12,6.26-3.42,16.22-.68,23.04l3.79.71Z"/><path class="cls-7_fitness-99" d="m261.23,154.06s5.09,10.6-1.67,14.15l-2.92-14.15h4.59Z"/><g class="cls-4_fitness-99"><path class="cls-8_fitness-99" d="m162.47,247.9s12.23,81.73,66.94,88.12c54.71,6.39,98.02-24.83,98.02-24.83l-17.41,51.89-116.65.91-21.35-44.29s-17.02-36.38-9.55-71.81Z"/></g><polygon class="cls-7_fitness-99" points="193.37 364 200.69 461.54 302.44 461.54 310.02 363.09 193.37 364"/><path class="cls-2_fitness-99" d="m282.56,210.08v1.99c0,18.52-15,33.54-33.52,33.54s-33.54-15.02-33.54-33.54v-1.88c22.65-.88,46.54-1.93,67.06-.11Z"/><path class="cls-2_fitness-99" d="m133.49,106.77s4.83-8.07,4.31-12.99c-.52-4.92-4.31-4.92-4.31-4.92,0,0,1.73-6.99-1.12-10.1-2.85-3.11-18.12-2.33-19.16,0s-4.4,10.7-1.81,22.69c2.59,11.99,22.09,5.31,22.09,5.31Z"/><rect class="cls-7_fitness-99" x="46.87" y="82.35" width="406.26" height="9.03" rx="2.72" ry="2.72"/><rect class="cls-9_fitness-99" x="58.99" y="38.46" width="38.31" height="96.81" rx="5.2" ry="5.2"/><rect class="cls-9_fitness-99" x="402.7" y="38.46" width="38.31" height="96.81" rx="5.2" ry="5.2"/><path class="cls-2_fitness-99" d="m127.95,84.77c-3.21-.45-6.75,1.03-8.23,3.91-.34.67-.55,1.53-.1,2.12.31.41.85.57,1.36.68,2.05.43,4.15.43,6.24.43-2.63.85-4.81,3-5.69,5.62-.37,1.12-.51,2.38,0,3.44.75,1.57,2.66,2.21,4.39,2.32,4.46.28,11.68-2.91,11.93-8.17.23-4.82-5.5-9.75-9.9-10.36Z"/><path class="cls-2_fitness-99" d="m377.02,84.77c3.21-.45,6.75,1.03,8.23,3.91.34.67.55,1.53.1,2.12-.31.41-.85.57-1.36.68-2.05.43-4.15.43-6.24.43,2.63.85,4.81,3,5.69,5.62.37,1.12.51,2.38,0,3.44-.75,1.57-2.66,2.21-4.39,2.32-4.46.28-11.68-2.91-11.93-8.17-.23-4.82,5.5-9.75,9.9-10.36Z"/><rect class="cls-10_fitness-99 targetColor" x="228.72" y="153.53" width="35.57" height="5.41" rx="1.42" ry="1.42" transform="translate(-6.96 11.56) rotate(-2.65)" style="fill: rgb(252, 166, 0);"/><g class="cls-3_fitness-99"><rect class="cls-1_fitness-99" x="210.13" y="262.79" width="79.75" height="47.49"/></g></g></svg>