<svg xmlns="http://www.w3.org/2000/svg" id="_0045_swimming" viewBox="0 0 500 500" data-imageid="swimming-59" imageName="Swimming" class="illustrations_image" style="width: 144px;"><defs><style>.cls-1_swimming-59{fill:#f4a28c;}.cls-2_swimming-59{fill:#e6e6e6;}.cls-3_swimming-59{fill:#24285b;}.cls-4_swimming-59{fill:#000001;opacity:.08;}.cls-5_swimming-59{fill:#ffd200;}.cls-6_swimming-59{fill:#68e1fd;}</style></defs><g id="bg_swimming-59"><circle class="cls-2_swimming-59" cx="250" cy="250" r="219.83"/><circle class="cls-4_swimming-59" cx="361.36" cy="231.48" r="6.69"/><circle class="cls-4_swimming-59" cx="408.8" cy="169.17" r="6.69"/><circle class="cls-4_swimming-59" cx="408.8" cy="213.46" r="13.89"/><circle class="cls-4_swimming-59" cx="364.46" cy="191.1" r="18.55"/><path class="cls-4_swimming-59" d="m158.84,130.04c-6.63,0-14.1-1.6-23.08-4.86-10.1-3.67-22.82,2.91-22.95,2.98-1.95,1.03-4.37.28-5.4-1.67-1.03-1.95-.29-4.37,1.66-5.4.64-.34,15.95-8.32,29.42-3.43,12.41,4.51,21.27,5.48,28.74,3.14,1.35-.42,2.65-.86,3.92-1.29,7.62-2.57,14.83-5,25.67-1.95,1.87.53,3.57,1.05,5.21,1.56,8.2,2.54,13.14,4.08,22.32.23,15.25-6.4,26.42-1.8,31.36,4.09,1.42,1.69,1.2,4.22-.5,5.64-1.69,1.42-4.22,1.2-5.64-.5-3.19-3.8-10.9-6.57-22.13-1.85-11.86,4.98-19.24,2.69-27.79.04-1.59-.49-3.24-1.01-5.01-1.5-8.47-2.38-13.98-.53-20.95,1.83-1.33.45-2.68.9-4.09,1.34-3.39,1.06-6.95,1.6-10.78,1.6Z"/><path class="cls-4_swimming-59" d="m285.6,382.94c-6.63,0-14.1-1.6-23.08-4.86-10.1-3.67-22.82,2.91-22.95,2.98-1.95,1.03-4.37.28-5.4-1.67-1.03-1.95-.29-4.37,1.66-5.4.64-.34,15.95-8.32,29.42-3.43,12.41,4.51,21.28,5.48,28.74,3.14,1.35-.42,2.65-.86,3.92-1.29,7.62-2.57,14.83-5,25.67-1.95,1.87.53,3.57,1.05,5.21,1.56,8.2,2.54,13.15,4.08,22.32.23,15.25-6.4,26.42-1.79,31.36,4.09,1.42,1.69,1.2,4.22-.5,5.63-1.69,1.42-4.21,1.2-5.64-.5-3.19-3.8-10.9-6.57-22.13-1.85-11.86,4.98-19.24,2.69-27.79.04-1.59-.49-3.24-1-5-1.5-8.47-2.38-13.98-.53-20.95,1.83-1.32.45-2.68.9-4.09,1.34-3.39,1.06-6.95,1.6-10.78,1.6Z"/></g><g id="swimmer_swimming-59"><path class="cls-1_swimming-59" d="m157.61,251.21l-47.83,7.57-66.24,3.28s-2.79-6.54-8.89-5.73c-6.1.81-5.03,15.83-11.82,17.36-6.79,1.52-6.87,11.16-1.12,10.71,5.75-.45,9.56-9.25,17.44-10.07l128.68,12.56-10.23-35.68Z"/><path class="cls-4_swimming-59" d="m157.61,251.21l-47.83,7.57-66.24,3.28s-2.79-6.54-8.89-5.73c-6.1.81-5.03,15.83-11.82,17.36-6.79,1.52-6.87,11.16-1.12,10.71,5.75-.45,9.56-9.25,17.44-10.07l128.68,12.56-10.23-35.68Z"/><path class="cls-1_swimming-59" d="m299.49,258.92s64.89.38,109.06,6.06c44.17,5.68,75.09,20.33,73.86,30.92-1.24,10.6-13.4.22-13.4.22,0,0-1.28,7.66-4.5,4.78s-3.66-8.2-9.34-10.21c-5.68-2-80.01-9.78-146.98,8.7l-8.7-40.48Z"/><path class="cls-4_swimming-59" d="m299.49,258.92s64.89.38,109.06,6.06c44.17,5.68,75.09,20.33,73.86,30.92-1.24,10.6-13.4.22-13.4.22,0,0-1.28,7.66-4.5,4.78s-3.66-8.2-9.34-10.21c-5.68-2-80.01-9.78-146.98,8.7l-8.7-40.48Z"/><path class="cls-6_swimming-59 targetColor" d="m313.54,248.51s-2.11-34.52-53.33-33.2c-51.23,1.32-23.13,22.95-89.14,11.35l-3.23,60.23s113.4,34.53,153.6,6.02c40.2-28.5-7.9-44.4-7.9-44.4Z" style="fill: rgb(243, 0, 0);"/><path class="cls-1_swimming-59" d="m312.77,250.58c-.82,2.53-1.69,5.04-2.79,7.46-1.51,3.32-2.85,8.7,1.84,12.19,7.23,5.39,15.54-6.15,15.54-6.15,0,0,10.82-9.32,3-15.18-7.03-5.28-13.84-9.92-17.59,1.68Z"/><path class="cls-1_swimming-59" d="m326.61,264.35s2.34-3.6,5.59-1.79c3.25,1.8-1.58,8.3-5.59,1.79Z"/><path class="cls-1_swimming-59" d="m311.14,258.73s2.98-3.09.48-5.85c-2.49-2.76-7.73,3.41-.48,5.85Z"/><path class="cls-4_swimming-59" d="m274.05,262.97s-30.63,12.06-47.56-9.39c-16.92-21.45-57.13,4.85-57.13,4.85l1.71-31.77s37.98,8.22,50.64-1.12c0,0,11.22-7.86,24.19-9.12s28.15,46.56,28.15,46.56Z"/><path class="cls-3_swimming-59" d="m313.54,248.51s14.41,1.31,18.4,9.87c0,0,12.99-15.92-.36-22.05s-18.04,12.17-18.04,12.17Z"/><path class="cls-1_swimming-59" d="m254.74,255.52c-2.02-2.96-2.63-6.65-2.06-10.19,1.58-9.91,3.33-39.94-47.89-41.45-45.59-1.34-61.67-8.18-61.67-8.18l2.88-7.07s41.68-7.29,62.26-9.49c24.24-2.6,83.8,2.42,92.09,50.06,2.93,16.87-9.18,32.99-26.29,33.77-.54.02-1.09.04-1.65.04-10.05.02-15.12-3.74-17.67-7.49Z"/><rect class="cls-5_swimming-59" x="451.53" y="272.72" width="11.63" height="20.1" transform="translate(81.88 -102.14) rotate(13.98)"/><path class="cls-1_swimming-59" d="m146.59,196.6s-15.25-2.99-14.29-10.35c.97-7.35,6.01,1.8,9.78-.16,3.77-1.97-1.76-5.68,4.24-5.78s5.32,8.06,5.32,8.06l-5.05,8.23Z"/><polygon class="cls-3_swimming-59" points="115.42 257.88 117.94 284.62 167.84 286.89 165.15 257.86 115.42 257.88"/><path class="cls-1_swimming-59" d="m171.07,226.65s-16.61-10.51-29.69-4.55c-13.07,5.96-33.33,52.04-65.8,7.24l-10.06,2.96s18.87,60.57,66.69,27.57c8.33-5.75,20.06,2.15,25.43,10.72l10.19,16.29,3.23-60.23Z"/><path class="cls-1_swimming-59" d="m77.07,231.7s4.51-4.69,1.64-9.54c-2.86-4.84-15.13,1.44-18.85-3.73-3.72-5.17-11.86-1.78-9.42,2.9s11.22,4.73,14.73,11.07l11.9-.71Z"/><path class="cls-3_swimming-59" d="m171.07,226.65s-9.41-8.87-24.67-7.91c-15.26.96-20.44,22.44-31.25,22.85l7.11,24.33s23.34-3.5,28.73,3.32,16.84,17.65,16.84,17.65l3.23-60.23Z"/><circle class="cls-5_swimming-59" cx="318.1" cy="253.55" r="5.22"/><circle class="cls-5_swimming-59" cx="327.09" cy="258.43" r="5.22"/></g></svg>