<svg xmlns="http://www.w3.org/2000/svg" id="_0094_tennis" viewBox="0 0 500 500" data-imageid="tennis-50" imageName="Tennis" class="illustrations_image" style="width: 144px;"><defs><style>.cls-1_tennis-50{fill:#fff;}.cls-2_tennis-50{opacity:.39;}.cls-2_tennis-50,.cls-3_tennis-50,.cls-4_tennis-50,.cls-5_tennis-50,.cls-6_tennis-50,.cls-7_tennis-50{fill:none;}.cls-8_tennis-50{fill:#f4a28c;}.cls-9_tennis-50{fill:#a5a5a5;}.cls-10_tennis-50{fill:#ce8172;}.cls-11_tennis-50{fill:#e6e6e6;}.cls-3_tennis-50{opacity:.03;}.cls-4_tennis-50{opacity:.08;}.cls-5_tennis-50{opacity:.31;}.cls-6_tennis-50{opacity:.55;}.cls-7_tennis-50{opacity:.3;}.cls-12_tennis-50{fill:#24285b;}.cls-13_tennis-50{fill:#000001;}.cls-14_tennis-50{fill:#ffd200;}.cls-15_tennis-50{fill:#68e1fd;}</style></defs><g id="bg_tennis-50"><g class="cls-7_tennis-50"><path class="cls-11_tennis-50" d="m125.86,134.51c-35.66,27.93-56.79,79.2-53.43,132.73,1.72,27.37,9.51,53.94,30.53,68.2,56.32,38.19,301.72,37.92,335.16-28.84,34.45-68.77,22.62-164.51-55.71-204.73-67.91-34.87-164.46-39.48-256.54,32.65Z"/></g><g class="cls-3_tennis-50"><ellipse class="cls-13_tennis-50" cx="246.2" cy="461.36" rx="176.92" ry="22.29"/></g><path class="cls-11_tennis-50" d="m118.88,312.36c0-5.05-4.09-9.14-9.14-9.14-.5,0-.99.05-1.47.13-2.08-3.86-6.16-6.48-10.85-6.48-.15,0-.3.02-.45.02.28-1.14.45-2.32.45-3.54,0-8.07-6.54-14.62-14.62-14.62s-14.62,6.54-14.62,14.62c0,1.22.17,2.41.45,3.54-.15,0-.3-.02-.45-.02-6.8,0-12.31,5.51-12.31,12.31s5.51,12.31,12.31,12.31h42.74v-.09c4.48-.58,7.94-4.41,7.94-9.05Z"/><path class="cls-11_tennis-50" d="m474.23,321.72c0-4.86-3.94-8.79-8.79-8.79-.48,0-.95.05-1.41.12-2-3.71-5.92-6.24-10.44-6.24-.15,0-.29.02-.43.02.27-1.09.43-2.23.43-3.41,0-7.77-6.3-14.07-14.07-14.07s-14.07,6.3-14.07,14.07c0,1.18.16,2.32.43,3.41-.15,0-.29-.02-.43-.02-6.55,0-11.85,5.31-11.85,11.85s5.31,11.85,11.85,11.85h41.13v-.08c4.31-.56,7.65-4.24,7.65-8.71Z"/><path class="cls-11_tennis-50" d="m418.32,113.26c0-4.86-3.94-8.79-8.79-8.79-.48,0-.95.05-1.41.12-2-3.71-5.92-6.24-10.44-6.24-.15,0-.29.02-.43.02.27-1.09.43-2.23.43-3.41,0-7.77-6.3-14.07-14.07-14.07s-14.07,6.3-14.07,14.07c0,1.18.16,2.32.43,3.41-.15,0-.29-.02-.43-.02-6.55,0-11.85,5.31-11.85,11.85s5.31,11.85,11.85,11.85h41.13v-.08c4.31-.56,7.65-4.24,7.65-8.71Z"/><path class="cls-11_tennis-50" d="m159.09,135.6c0-5.34-4.33-9.66-9.66-9.66-.53,0-1.05.05-1.55.14-2.2-4.08-6.51-6.86-11.47-6.86-.16,0-.32.02-.48.02.3-1.2.48-2.45.48-3.75,0-8.54-6.92-15.46-15.46-15.46s-15.46,6.92-15.46,15.46c0,1.3.18,2.55.48,3.75-.16,0-.32-.02-.48-.02-7.19,0-13.03,5.83-13.03,13.03s5.83,13.03,13.03,13.03h45.21v-.09c4.74-.61,8.4-4.66,8.4-9.57Z"/><polygon class="cls-12_tennis-50" points="330.45 406.41 328.45 406.41 328.45 382.56 344.5 378.32 345.01 380.26 330.45 384.1 330.45 406.41"/><rect class="cls-14_tennis-50" x="315.91" y="414.46" width="27.08" height="49.68"/><path class="cls-14_tennis-50" d="m315.91,414.46s-.5-15.05,13.54-16.06c14.04-1.01,13.54,16.06,13.54,16.06h-27.08Z"/><g class="cls-2_tennis-50"><path class="cls-1_tennis-50" d="m315.91,414.46s-.5-15.05,13.54-16.06c14.04-1.01,13.54,16.06,13.54,16.06h-27.08Z"/></g><rect class="cls-11_tennis-50" x="332.04" y="449.25" width="43.44" height="14.89"/><rect class="cls-9_tennis-50" x="332.04" y="434.35" width="43.44" height="14.89"/></g><g id="tenis_player_tennis-50"><path class="cls-15_tennis-50 targetColor" d="m461.36,231.92v-.02c5.3-1.68,10.48-4.79,14.85-9.3,12.04-12.39,13.52-30.55,3.3-40.48s-28.33-7.94-40.37,4.45c-4.43,4.55-7.41,9.89-8.93,15.31h0s0,.01,0,.01c-.57,2.03-.93,4.08-1.08,6.1-2.03,9.75-7.34,29.1-19.38,42.54l3.46,3.18c.12-.13,12.32-12.7,44.35-20.86,1.19-.22,2.38-.51,3.57-.87.08-.02.16-.04.24-.06Zm14.88-46.43c8.36,8.13,6.84,23.31-3.4,33.84-3.76,3.87-8.19,6.57-12.69,8.05-1.32.31-2.61.63-3.87.95-6.46,1.1-12.76-.36-17.17-4.64-3.91-3.8-5.63-9.13-5.34-14.81.65-3.18.96-5.39,1.07-6.16,1.35-4.53,3.92-9.01,7.67-12.87,10.24-10.53,25.37-12.49,33.73-4.36Zm-54.5,56.31c4.29-7.43,7.24-15.23,9.25-21.91,1.12,2.66,2.72,5.09,4.84,7.16,2.33,2.27,5.09,3.88,8.07,4.92-9.56,3.24-16.85,6.74-22.17,9.82Z" style="fill: rgb(243, 44, 0);"/><path class="cls-8_tennis-50" d="m300.67,180.53s-7.23,4.64-10.86,9.27c-1.47,1.87-1.14,4.63.76,6.07,2.35,1.79,6.06,3.53,10.23,1.52l7.51-2.55s4.65-1.77,4.45-7.73c-.2-5.97-7.83-9.62-12.09-6.57Z"/><polygon class="cls-8_tennis-50" points="306.64 194.77 291.89 218.77 279.25 209.7 295.06 195.88 306.64 194.77"/><path class="cls-12_tennis-50" d="m300.51,180.04c-.21.87.67,1.66,1.18,2.39.85,1.24,2.55,3.41,5.32,5.9,0,0-4.6.16-6.22,4.81s2.47,7,2.47,7l8.65-6.86,2.57-1.86-9.8-12.92s-3.49-1.25-4.17,1.54Z"/><path class="cls-8_tennis-50" d="m300.43,192.25s2.66-1.97,3.98.15c1.32,2.12-2.51,5-4.92,2.59l.95-2.75Z"/><path class="cls-8_tennis-50" d="m296.27,183.69l-4.08.13c-1.01.03-1.64,1.1-1.18,2l1.52,2.98,3.75-5.11Z"/><g class="cls-5_tennis-50"><path class="cls-10_tennis-50" d="m294.81,196.54s2.22,1.91,5.45,2.15c0,0-3.38,3.96-10.86,2.59l5.42-4.74Z"/></g><path class="cls-12_tennis-50" d="m198.84,437.88s.13,7.89-5.95,10.79c-6.07,2.9-5.4,9.65.85,9.12s18.05-13.28,18.05-13.28l-4.86-11.29-8.09,4.66Z"/><path class="cls-12_tennis-50" d="m273.46,451.14s.12,7.48-5.64,10.23c-5.76,2.75-5.12,9.16.8,8.65,5.92-.51,17.12-12.6,17.12-12.6l-4.61-10.71-7.68,4.42Z"/><path class="cls-15_tennis-50 targetColor" d="m254.8,170.76c8.62,22.66,24.88,41.66,46.11,53.36,6.48,3.57,13.2,7.75,19.32,12.46,21.53,16.57,29.29,59.76,29.29,59.76l-37.31,20.96-11.64-22.88s-29.17,22.8-36.71,46.92l-64.78-20.69s-.26-48.75,11.15-83.43c6.42-19.48,6.79-40.45,1.41-60.25l-1.89-6.96,39.57-13.62,5.46,14.36Z" style="fill: rgb(243, 44, 0);"/><path class="cls-8_tennis-50" d="m199.09,320.65l-23.19,31.21c-7.64,10.29-8.81,24.01-3,35.44l26.19,51.53,8.26-4.7-12.97-40.95c-3.22-10.15-.26-21.25,7.58-28.46l18.24-16.76,7.11,40.79c1.57,9.04,5.65,17.45,11.76,24.3l35.23,39.44,6.28-5.44-15.57-25.75c-11.65-19.27-14.59-42.64-7.77-64.1,1.76-5.54,3.94-10.99,6.62-15.86l-64.78-20.69Z"/><path class="cls-12_tennis-50" d="m199.09,320.65l-28.47,29.46,23.52,26.42,26.89-23.87,4.79,40.8h33.12s-3.08-26.02,4.94-52.13l-64.78-20.69Z"/><path class="cls-14_tennis-50" d="m314.48,191.42s-13.86-6.2-17.46-18.36c-.35-1.17,1.11-2.03,1.98-1.17l4.84,4.81s5.92-5.28,10.65-.8c4.72,4.48,7.92,9.42,0,15.52Z"/><path class="cls-8_tennis-50" d="m316.79,314.73s20.03,35.49,38.83,26.61,49.4-67.4,49.4-67.4l-8.33-5.07s-26.44,27.65-40.93,39.98c-2.91,2.48-7.41,1.19-8.62-2.44l-2.44-7.35-27.9,15.67Z"/><rect class="cls-12_tennis-50" x="399.15" y="243.75" width="10.44" height="31.36" transform="translate(295.21 -208.44) rotate(44.18)"/><path class="cls-8_tennis-50" d="m405.01,273.94s3.66-13.58-4.18-18.28c-7.83-4.7-13.58,10.97,4.18,18.28Z"/><g class="cls-4_tennis-50"><path class="cls-13_tennis-50" d="m237.91,333.05s30.11-9.37,36.4-40.31c6.28-30.94,28.23-32.12,38.6-14.1,10.37,18.02,17.5,28.43,17.5,28.43l-18.2,10.22-11.64-22.88s-32.29,25.7-36.71,46.92l-25.96-8.29Z"/></g><polygon class="cls-15_tennis-50 targetColor" points="187.85 416.71 200.48 412.43 207.35 434.13 199.09 438.83 187.85 416.71" style="fill: rgb(243, 44, 0);"/><polygon class="cls-15_tennis-50 targetColor" points="255.85 431.83 265.02 421.3 280.59 447.05 274.31 452.5 255.85 431.83" style="fill: rgb(243, 44, 0);"/><path class="cls-8_tennis-50" d="m214.02,168.55s-12.52-31.3-10.56-57.93c1.96-26.63,10.57-42.3,2.35-56.4-8.22-14.1,15.27-20.37,16.45-3.92,1.17,16.45,2.56,32.12,2.65,48.17.09,16.06,20.26,59.35,20.26,59.35l-31.15,10.72Z"/><circle class="cls-14_tennis-50" cx="219.05" cy="34.74" r="13.8"/><g class="cls-6_tennis-50"><circle class="cls-1_tennis-50" cx="239.28" cy="232.8" r="9"/></g><path class="cls-1_tennis-50" d="m210.1,42.6c-1.81,0-3.2-.37-3.31-.4l.26-.96s4.5,1.18,7.62-.8c1.54-.98,2.53-2.59,2.92-4.78.68-3.78,2.72-6.55,5.75-7.8,3.08-1.26,6.92-.77,9.79,1.25l-.58.82c-2.6-1.83-6.07-2.28-8.84-1.15-2.7,1.11-4.53,3.61-5.14,7.05-.44,2.48-1.58,4.31-3.37,5.45-1.63,1.03-3.53,1.31-5.11,1.31Z"/></g></svg>